<?xml version="1.0" encoding="UTF-8" standalone="no" ?>
<!DOCTYPE svg PUBLIC "-//W3C//DTD SVG 1.1//EN" "http://www.w3.org/Graphics/SVG/1.1/DTD/svg11.dtd">
<svg xmlns="http://www.w3.org/2000/svg" xmlns:xlink="http://www.w3.org/1999/xlink" version="1.1" width="303" height="477" viewBox="0 0 303 477" xml:space="preserve">
<g transform="matrix(6.44 0 0 6.44 151.92 238.55)"  >
<path style="stroke: rgb(0,0,0); stroke-width: 0.94; stroke-dasharray: none; stroke-linecap: round; stroke-dashoffset: 0; stroke-linejoin: miter; stroke-miterlimit: 4; fill: rgb(0,0,0); fill-rule: evenodd; opacity: 1;"  transform=" translate(-23.12, -36.57)" d="M 46.24 45.02 L 46.24 28.125 Q 46.24 21.48 44.739 16.358 A 30.156 30.156 0 0 0 44.629 15.992 A 28.605 28.605 0 0 0 42.676 11.164 A 22.126 22.126 0 0 0 40.039 7.178 A 19.33 19.33 0 0 0 32.764 1.831 A 22.727 22.727 0 0 0 26.66 0.219 A 28.939 28.939 0 0 0 23.047 0 A 26.646 26.646 0 0 0 17.54 0.548 A 21.733 21.733 0 0 0 13.452 1.831 A 19.374 19.374 0 0 0 6.201 7.178 A 22.182 22.182 0 0 0 2.98 12.292 A 28.645 28.645 0 0 0 1.587 15.992 Q 0.099 20.912 0.006 27.271 A 58.423 58.423 0 0 0 0 28.125 L 0 45.02 Q 0 51.665 1.502 56.787 A 30.156 30.156 0 0 0 1.612 57.154 A 27.58 27.58 0 0 0 3.568 61.952 A 21.28 21.28 0 0 0 6.25 65.918 Q 9.229 69.532 13.526 71.338 A 23.086 23.086 0 0 0 19.919 72.968 A 28.756 28.756 0 0 0 23.145 73.145 Q 28.565 73.145 32.837 71.314 Q 37.11 69.483 40.088 65.918 A 21.77 21.77 0 0 0 43.135 61.132 A 28.671 28.671 0 0 0 44.654 57.154 Q 46.141 52.233 46.234 45.874 A 58.423 58.423 0 0 0 46.24 45.02 Z M 33.496 24.414 L 12.696 40.039 L 12.696 37.696 L 12.696 34.717 L 12.696 25.977 Q 12.696 21.826 13.379 18.75 A 16.259 16.259 0 0 1 14.048 16.485 Q 14.646 14.915 15.528 13.77 A 8.048 8.048 0 0 1 18.677 11.133 Q 20.557 10.254 23.047 10.254 A 12.769 12.769 0 0 1 25.22 10.431 A 9.877 9.877 0 0 1 27.149 10.962 Q 28.955 11.67 30.176 13.135 A 10.15 10.15 0 0 1 31.576 15.281 Q 32.115 16.373 32.495 17.701 A 23.395 23.395 0 0 1 33.084 20.367 Q 33.386 22.217 33.496 24.414 Z M 33.545 38.428 L 33.545 47.071 Q 33.545 50.663 33.027 53.451 A 23.031 23.031 0 0 1 32.837 54.37 A 17.243 17.243 0 0 1 32.105 56.791 Q 31.511 58.316 30.664 59.473 A 7.85 7.85 0 0 1 27.515 62.085 A 9.32 9.32 0 0 1 25.102 62.793 A 12.532 12.532 0 0 1 23.145 62.94 Q 20.606 62.94 18.677 61.988 A 8.079 8.079 0 0 1 15.64 59.366 A 9.565 9.565 0 0 1 15.479 59.131 A 11.004 11.004 0 0 1 14.34 57.088 Q 13.915 56.102 13.609 54.944 A 18.089 18.089 0 0 1 13.599 54.908 A 24.738 24.738 0 0 1 13.083 52.373 Q 12.881 51.053 12.776 49.564 A 42.229 42.229 0 0 1 12.744 49.073 L 33.545 33.545 L 33.545 35.962 L 33.545 38.428 Z" stroke-linecap="round" />
</g>
<g transform="matrix(1 0 0 1 87.67 255.17)"  >
<line style="stroke: rgb(0,0,0); stroke-width: 2; stroke-dasharray: none; stroke-linecap: butt; stroke-dashoffset: 0; stroke-linejoin: miter; stroke-miterlimit: 4; fill: rgb(0,0,0); fill-rule: nonzero; opacity: 1;"  x1="0" y1="0" x2="0" y2="0" />
</g>
<g transform="matrix(1.09 0 0 1.09 148.28 172.02)"  >
<line style="stroke: rgb(0,0,0); stroke-width: 19; stroke-dasharray: none; stroke-linecap: butt; stroke-dashoffset: 0; stroke-linejoin: miter; stroke-miterlimit: 4; fill: rgb(0,0,0); fill-rule: nonzero; opacity: 1;"  x1="64.5" y1="-48" x2="-64.5" y2="48" />
</g>
</svg>